<svg width="107" height="126" viewBox="0 0 107 126" fill="none" xmlns="http://www.w3.org/2000/svg">
<g filter="url(#filter0_d_444_1233)">
<circle cx="63.3571" cy="48.6429" r="18.6429" fill="#F53838"/>
<circle cx="63.3571" cy="48.6429" r="17.6429" stroke="#F53838" stroke-width="2"/>
</g>
<path d="M57.9196 47.8658H67.1323L64.3126 44.479C64.1807 44.3204 64.1173 44.1159 64.1362 43.9105C64.1552 43.7051 64.2549 43.5156 64.4136 43.3837C64.5722 43.2519 64.7767 43.1885 64.9821 43.2074C65.1875 43.2263 65.377 43.3261 65.5088 43.4847L69.3928 48.1454C69.4189 48.1825 69.4422 48.2214 69.4627 48.2619C69.4627 48.3008 69.4627 48.3241 69.517 48.3629C69.5522 48.452 69.5707 48.5468 69.5714 48.6426C69.5707 48.7383 69.5522 48.8332 69.517 48.9222C69.517 48.9611 69.517 48.9844 69.4627 49.0232C69.4422 49.0637 69.4189 49.1026 69.3928 49.1397L65.5088 53.8004C65.4358 53.8881 65.3443 53.9586 65.241 54.007C65.1376 54.0553 65.0248 54.0803 64.9107 54.0801C64.7292 54.0804 64.5533 54.0172 64.4136 53.9014C64.3349 53.8362 64.2699 53.7561 64.2222 53.6657C64.1746 53.5754 64.1452 53.4765 64.1358 53.3747C64.1264 53.273 64.1372 53.1704 64.1676 53.0728C64.1979 52.9753 64.2472 52.8846 64.3126 52.8061L67.1323 49.4194H57.9196C57.7136 49.4194 57.516 49.3375 57.3704 49.1918C57.2247 49.0462 57.1428 48.8486 57.1428 48.6426C57.1428 48.4366 57.2247 48.239 57.3704 48.0933C57.516 47.9476 57.7136 47.8658 57.9196 47.8658Z" fill="white"/>
<defs>
<filter id="filter0_d_444_1233" x="0.714233" y="0" width="125.286" height="125.286" filterUnits="userSpaceOnUse" color-interpolation-filters="sRGB">
<feFlood flood-opacity="0" result="BackgroundImageFix"/>
<feColorMatrix in="SourceAlpha" type="matrix" values="0 0 0 0 0 0 0 0 0 0 0 0 0 0 0 0 0 0 127 0" result="hardAlpha"/>
<feOffset dy="14"/>
<feGaussianBlur stdDeviation="22"/>
<feColorMatrix type="matrix" values="0 0 0 0 0.0561111 0 0 0 0 0.0777333 0 0 0 0 0.133333 0 0 0 0.08 0"/>
<feBlend mode="normal" in2="BackgroundImageFix" result="effect1_dropShadow_444_1233"/>
<feBlend mode="normal" in="SourceGraphic" in2="effect1_dropShadow_444_1233" result="shape"/>
</filter>
</defs>
</svg>
