<svg width="38" height="38" viewBox="0 0 38 38" fill="none" xmlns="http://www.w3.org/2000/svg">
<circle cx="18.6429" cy="18.6429" r="17.6429" stroke="#F53838" stroke-width="2"/>
<path d="M24.0804 17.8658H14.8677L17.6874 14.479C17.8193 14.3204 17.8827 14.1159 17.8638 13.9105C17.8448 13.7051 17.7451 13.5156 17.5864 13.3837C17.4278 13.2519 17.2233 13.1885 17.0179 13.2074C16.8125 13.2263 16.623 13.3261 16.4912 13.4847L12.6072 18.1454C12.5811 18.1825 12.5578 18.2214 12.5373 18.2619C12.5373 18.3008 12.5373 18.3241 12.483 18.3629C12.4478 18.452 12.4293 18.5468 12.4286 18.6426C12.4293 18.7383 12.4478 18.8332 12.483 18.9222C12.483 18.9611 12.483 18.9844 12.5373 19.0232C12.5578 19.0637 12.5811 19.1026 12.6072 19.1397L16.4912 23.8004C16.5642 23.8881 16.6557 23.9586 16.759 24.007C16.8624 24.0553 16.9752 24.0803 17.0893 24.0801C17.2708 24.0804 17.4467 24.0172 17.5864 23.9014C17.6651 23.8362 17.7301 23.7561 17.7778 23.6657C17.8254 23.5754 17.8548 23.4765 17.8642 23.3747C17.8736 23.273 17.8628 23.1704 17.8324 23.0728C17.8021 22.9753 17.7528 22.8846 17.6874 22.8061L14.8677 19.4194H24.0804C24.2864 19.4194 24.484 19.3375 24.6296 19.1918C24.7753 19.0462 24.8572 18.8486 24.8572 18.6426C24.8572 18.4366 24.7753 18.239 24.6296 18.0933C24.484 17.9476 24.2864 17.8658 24.0804 17.8658Z" fill="#F53838"/>
</svg>
