<svg width="25" height="25" viewBox="0 0 25 25" fill="none" xmlns="http://www.w3.org/2000/svg">
<path d="M11.2158 16.9151C11.0845 16.9153 10.9545 16.8901 10.8332 16.8407C10.7118 16.7913 10.6016 16.7188 10.5088 16.6273L6.26679 12.446C6.17121 12.3552 6.09495 12.2465 6.04246 12.1263C5.98997 12.0061 5.96229 11.8768 5.96104 11.746C5.9598 11.6152 5.985 11.4854 6.0352 11.3642C6.08539 11.2431 6.15957 11.133 6.25339 11.0404C6.34722 10.9478 6.45882 10.8746 6.58167 10.8249C6.70453 10.7753 6.83619 10.7503 6.96897 10.7513C7.10175 10.7524 7.23299 10.7795 7.35503 10.831C7.47707 10.8826 7.58747 10.9576 7.67979 11.0516L11.2148 14.5352L17.5798 8.26477C17.7673 8.07986 18.0217 7.97592 18.2869 7.97583C18.5522 7.97574 18.8066 8.07949 18.9943 8.26427C19.1819 8.44906 19.2874 8.69972 19.2875 8.96113C19.2876 9.22255 19.1823 9.47329 18.9948 9.6582L11.9228 16.6273C11.83 16.7188 11.7197 16.7913 11.5984 16.8407C11.4771 16.8901 11.3471 16.9153 11.2158 16.9151Z" fill="#2FAB73"/>
</svg>
